# xmcd
#
# Track frame offsets:
#	150
#	9350
#	21117
#	32445
#	42485
#	54002
#	65887
#	74200
#	87322
#	98440
#	109705
#	119510
#	128377
#	138467
#	146915
#	158875
#	169445
#	181002
#	192607
#	205570
#	213172
#
# Disc length: 2857 seconds
# Revision: 2
# Processed by: cddbd v1.5.2PL0 Copyright (c) Steve Scherf et al.
# Submitted via: dBpowerAMP V12.0
#
DISCID=290b2715
DTITLE=Various Artist - Christmas On The Range - Cowboy Classics From Capitol Records
DYEAR=1953
DGENRE=Christmas
TTITLE0=Jimmy Wakely - It's Christmas
TTITLE1=Hank Thompson - Santa Claus is Comin' To Town
TTITLE2=Dinning Sister - Blue Christmas
TTITLE3=Faron Young - I'm Gonna Tell Santa Claus On You
TTITLE4=Tex Ritter - Christmas Carols By the Old Corral
TTITLE5=Sonny James - Christmas In My Hometown
TTITLE6=Tennessee Ernie Ford - A Rootin' Tootin' Santa Claus
TTITLE7=Margaret Whiting - Silver Bells
TTITLE8=Cliffie Stone - Here Comes Santa Claus
TTITLE9=Faron Young - You're The Angel On My Christmas Tree
TTITLE10=Tex Williams - The Winter Song
TTITLE11=Tex Ritter - Ole Tex Kringle
TTITLE12=Ferlin Husky - Lonely Christmas
TTITLE13=Sonny James - A Pocketful Of Mistletoe
TTITLE14=Jimmy Wakely - If Santa Claus Could Bring You Back To Me
TTITLE15=Hank Thompson - Rudolph, The Red Nosed Reindeer
TTITLE16=Molly Bee - I Saw Mommy Kissing Santa Claus
TTITLE17=Wesley Tuttle - White Christmas
TTITLE18=Tennessee Ernie Ford - Christmas Dinner
TTITLE19=Roy Rogers - Jingle Bells
TTITLE20=Hank Thompson - We Wish You A Merry Christmas
EXTD=
EXTT0=
EXTT1=
EXTT2=
EXTT3=
EXTT4=
EXTT5=
EXTT6=
EXTT7=
EXTT8=
EXTT9=
EXTT10=
EXTT11=
EXTT12=
EXTT13=
EXTT14=
EXTT15=
EXTT16=
EXTT17=
EXTT18=
EXTT19=
EXTT20=
PLAYORDER=
